HIERARCHY
ROOT Hip
{
  OFFSET 0.0 0.0 0.0
  CHANNELS 6 Xposition Yposition Zposition Xrotation Yrotation Zrotation
  JOINT LowerSpine
  {
    OFFSET 0.0 0.613667309 -0.332081616
    CHANNELS 3 Xrotation Yrotation Zrotation
    JOINT MiddleSpine
    {
      OFFSET 0.0 0.560024083 0.029251534
      CHANNELS 3 Xrotation Yrotation Zrotation
      JOINT Chest
      {
        OFFSET 0.0 0.69296515 -0.154244974
        CHANNELS 3 Xrotation Yrotation Zrotation
        JOINT Neck
        {
          OFFSET 0.0 1.561565161 -0.032478195
          CHANNELS 3 Xrotation Yrotation Zrotation
          JOINT Head
          {
            OFFSET 0.0 0.881830573 0.239857286
            CHANNELS 3 Xrotation Yrotation Zrotation
            End Site
            {
              OFFSET 6.612e-06 1.23214817 0.036782615
            }
          }
        }
        JOINT LClavicle
        {
          OFFSET 0.157650173 1.506982923 0.516298831
          CHANNELS 3 Xrotation Yrotation Zrotation
          JOINT LShoulder
          {
            OFFSET 0.921026587 0.21615985 -0.349762142
            CHANNELS 3 Xrotation Yrotation Zrotation
            JOINT LForearm
            {
              OFFSET 1.956454158 -0.006949223 -0.016953195
              CHANNELS 3 Xrotation Yrotation Zrotation
              JOINT LHand
              {
                OFFSET 1.632095456 0.004734199 -0.009772551
                CHANNELS 3 Xrotation Yrotation Zrotation
                JOINT LFinger1
                {
                  OFFSET 0.632551193 0.055316079 0.17568773
                  CHANNELS 3 Xrotation Yrotation Zrotation
                  JOINT LFinger11
                  {
                    OFFSET 0.236604184 -0.057696406 0.041688729
                    CHANNELS 3 Xrotation Yrotation Zrotation
                    JOINT LFinger12
                    {
                      OFFSET 0.161524802 -0.039407585 0.028471317
                      CHANNELS 3 Xrotation Yrotation Zrotation
                      End Site
                      {
                        OFFSET 0.114943191 -0.034309722 0.01864587
                      }
                    }
                  }
                }
                JOINT LFinger2
                {
                  OFFSET 0.641993165 0.063885242 0.015300192
                  CHANNELS 3 Xrotation Yrotation Zrotation
                  JOINT LFinger21
                  {
                    OFFSET 0.292548418 0.000813277 -0.001725735
                    CHANNELS 3 Xrotation Yrotation Zrotation
                    JOINT LFinger22
                    {
                      OFFSET 0.162152946 0.000489289 -0.00098519
                      CHANNELS 3 Xrotation Yrotation Zrotation
                      End Site
                      {
                        OFFSET 0.145649374 -0.010281676 0.00019836
                      }
                    }
                  }
                }
                JOINT LFinger3
                {
                  OFFSET 0.608417392 0.042627633 -0.143936858
                  CHANNELS 3 Xrotation Yrotation Zrotation
                  JOINT LFinger31
                  {
                    OFFSET 0.265459001 -0.013442217 -0.016615983
                    CHANNELS 3 Xrotation Yrotation Zrotation
                    JOINT LFinger32
                    {
                      OFFSET 0.151269585 -0.007610424 -0.009508071
                      CHANNELS 3 Xrotation Yrotation Zrotation
                      End Site
                      {
                        OFFSET 0.133747742 -0.01644407 -0.006321082
                      }
                    }
                  }
                }
                JOINT LFinger4
                {
                  OFFSET 0.564586341 -0.042911947 -0.248591766
                  CHANNELS 3 Xrotation Yrotation Zrotation
                  JOINT LFinger41
                  {
                    OFFSET 0.163283601 -0.034051854 -0.045074075
                    CHANNELS 3 Xrotation Yrotation Zrotation
                    JOINT LFinger42
                    {
                      OFFSET 0.119736895 -0.024940504 -0.033073276
                      CHANNELS 3 Xrotation Yrotation Zrotation
                      End Site
                      {
                        OFFSET 0.106274851 -0.029198637 -0.024385097
                      }
                    }
                  }
                }
                JOINT LFinger0
                {
                  OFFSET 0.13084507 -0.099041305 0.099193387
                  CHANNELS 3 Xrotation Yrotation Zrotation
                  JOINT LFinger01
                  {
                    OFFSET 0.243626148 -0.08001855 0.183681667
                    CHANNELS 3 Xrotation Yrotation Zrotation
                    JOINT LFinger02
                    {
                      OFFSET 0.160427213 -0.057398863 0.115577944
                      CHANNELS 3 Xrotation Yrotation Zrotation
                      End Site
                      {
                        OFFSET 0.117971487 -0.040610969 0.080778927
                      }
                    }
                  }
                }
              }
            }
          }
        }
        JOINT RClavicle
        {
          OFFSET -0.157650173 1.506982923 0.516298831
          CHANNELS 3 Xrotation Yrotation Zrotation
          JOINT RShoulder
          {
            OFFSET -0.921191931 0.216192916 -0.349821627
            CHANNELS 3 Xrotation Yrotation Zrotation
            JOINT RForearm
            {
              OFFSET -1.956454158 -0.006949223 -0.016953195
              CHANNELS 3 Xrotation Yrotation Zrotation
              JOINT RHand
              {
                OFFSET -1.6320889 0.004734199 -0.009772551
                CHANNELS 3 Xrotation Yrotation Zrotation
                JOINT RFinger1
                {
                  OFFSET -0.632551193 0.055316079 0.17568773
                  CHANNELS 3 Xrotation Yrotation Zrotation
                  JOINT RFinger11
                  {
                    OFFSET -0.236604184 -0.057696406 0.041688729
                    CHANNELS 3 Xrotation Yrotation Zrotation
                    JOINT RFinger12
                    {
                      OFFSET -0.161524802 -0.039407585 0.028471317
                      CHANNELS 3 Xrotation Yrotation Zrotation
                      End Site
                      {
                        OFFSET -0.114943191 -0.034309722 0.01864587
                      }
                    }
                  }
                }
                JOINT RFinger2
                {
                  OFFSET -0.641993165 0.063885242 0.015300192
                  CHANNELS 3 Xrotation Yrotation Zrotation
                  JOINT RFinger21
                  {
                    OFFSET -0.292548418 0.000813277 -0.001725735
                    CHANNELS 3 Xrotation Yrotation Zrotation
                    JOINT RFinger22
                    {
                      OFFSET -0.162152946 0.000489289 -0.00098519
                      CHANNELS 3 Xrotation Yrotation Zrotation
                      End Site
                      {
                        OFFSET -0.145649374 -0.010281676 0.00019836
                      }
                    }
                  }
                }
                JOINT RFinger3
                {
                  OFFSET -0.608417392 0.042627633 -0.143936858
                  CHANNELS 3 Xrotation Yrotation Zrotation
                  JOINT RFinger31
                  {
                    OFFSET -0.265459001 -0.013442217 -0.016615983
                    CHANNELS 3 Xrotation Yrotation Zrotation
                    JOINT RFinger32
                    {
                      OFFSET -0.151269585 -0.007610424 -0.009508071
                      CHANNELS 3 Xrotation Yrotation Zrotation
                      End Site
                      {
                        OFFSET -0.133747742 -0.01644407 -0.006321082
                      }
                    }
                  }
                }
                JOINT RFinger4
                {
                  OFFSET -0.564586341 -0.042905334 -0.248591766
                  CHANNELS 3 Xrotation Yrotation Zrotation
                  JOINT RFinger41
                  {
                    OFFSET -0.163283601 -0.034051854 -0.045074075
                    CHANNELS 3 Xrotation Yrotation Zrotation
                    JOINT RFinger42
                    {
                      OFFSET -0.119736895 -0.024940504 -0.033073276
                      CHANNELS 3 Xrotation Yrotation Zrotation
                      End Site
                      {
                        OFFSET -0.106274851 -0.029198637 -0.024385097
                      }
                    }
                  }
                }
                JOINT RFinger0
                {
                  OFFSET -0.13084507 -0.099041305 0.099193387
                  CHANNELS 3 Xrotation Yrotation Zrotation
                  JOINT RFinger01
                  {
                    OFFSET -0.243626148 -0.08001855 0.183681667
                    CHANNELS 3 Xrotation Yrotation Zrotation
                    JOINT RFinger02
                    {
                      OFFSET -0.160427213 -0.057398863 0.115577944
                      CHANNELS 3 Xrotation Yrotation Zrotation
                      End Site
                      {
                        OFFSET -0.117971487 -0.040610969 0.080778927
                      }
                    }
                  }
                }
              }
            }
          }
        }
      }
    }
  }
  JOINT RThigh
  {
    OFFSET -0.656473458 0.277400315 -0.054112695
    CHANNELS 3 Xrotation Yrotation Zrotation
    JOINT RShin
    {
      OFFSET -0.052532423 -2.855376959 0.0
      CHANNELS 3 Xrotation Yrotation Zrotation
      JOINT RFoot
      {
        OFFSET 0.0 -2.803803205 0.0
        CHANNELS 3 Xrotation Yrotation Zrotation
        JOINT RToe
        {
          OFFSET 0.0 -0.308165967 0.644406557
          CHANNELS 3 Xrotation Yrotation Zrotation
          End Site
          {
            OFFSET 0.0 0.0 0.432306468
          }
        }
      }
    }
  }
  JOINT LThigh
  {
    OFFSET 0.656466842 0.277420133 -0.054112695
    CHANNELS 3 Xrotation Yrotation Zrotation
    JOINT LShin
    {
      OFFSET 0.052532423 -2.855396748 0.0
      CHANNELS 3 Xrotation Yrotation Zrotation
      JOINT LFoot
      {
        OFFSET 0.0 -2.803803205 0.0
        CHANNELS 3 Xrotation Yrotation Zrotation
        JOINT LToe
        {
          OFFSET 0.0 -0.308165967 0.644413173
          CHANNELS 3 Xrotation Yrotation Zrotation
          End Site
          {
            OFFSET 0.0 0.0 0.432306468
          }
        }
      }
    }
  }
}
MOTION
Frames: 4
Frame Time: 0.0333333
5.712799072 5.712799072 5.712799072 6.020060062 -1.230476975 -0.672985137 -15.160004616 -1.844906449 0.475637257 4.938577652 -0.193027228 1.223831534 -3.348078251 3.656481743 1.504795074 -10.954534531 1.234719872 -3.356060266 1.386730075 0.117987543 1.095326185 -9.467146873 30.425962448 11.881117821 -25.731470108 -24.749080658 -37.224903107 -0.70307678 -28.379140854 12.547262192 0.157614082 -0.178118303 -0.099096604 -0.370435566 -0.005979316 0.11673978 -0.196109742 0.034175456 0.067830727 0.040365383 -0.00211858 0.054221753 -0.311384767 -0.089259118 -0.278931648 -0.085608378 0.027081033 0.128476128 0.031531494 0.007544413 0.166098952 0.044471119 -0.047678411 0.058739282 0.090226628 -0.090134226 0.123230234 0.046376333 -0.034976728 -0.034416184 -0.05199296 -0.022013798 0.182388008 0.082551636 -0.019553633 -0.079276979 0.027075496 0.034761529 -0.054719597 0.144414619 0.201221392 -0.02715645 0.150452763 0.102490611 -0.094482325 -0.034651145 -0.003389513 -0.117429659 -18.363855362 -30.061410904 -17.952749252 -30.725442886 18.123659134 45.537540436 1.832191706 26.657611847 -6.202558517 0.106498018 -0.107645042 0.037508611 -0.009372479 0.261425555 0.095382363 -0.271407515 0.116930015 0.037128877 -0.079286501 0.027433325 0.061292537 -0.040873598 -0.053222634 -0.253563851 0.119280383 0.00704343 0.033824414 0.014956332 0.125702903 -0.159722358 0.055033065 -0.088313833 0.172711253 -0.058605198 -0.01620866 -0.040127207 -0.242127836 0.148760974 0.003699308 -0.132286876 0.108834319 -0.195206583 0.09777943 0.219413534 0.092947803 -0.036258865 0.140413463 -0.132292151 -0.18646425 -0.210646868 -0.022024645 -0.15791285 -0.105062746 -0.143785805 0.043963384 0.045327853 0.060485046 -2.320096731 -11.383353233 14.963223457 -8.224974632 -24.583990097 -7.138762474 -5.039370537 -20.686567307 -10.637815475 0.711958051 0.204737335 0.19638069 -3.571941853 12.399573326 -15.417284012 -9.099017143 26.91150856 11.007944107 -2.062185049 19.554859161 8.507171631 -0.064732142 -0.012009655 -0.053958535 
5.712533951 5.712533951 5.712533951 2.429195881 6.893502712 1.020293832 1.067349315 0.212448254 -0.003912553 -1.060651422 1.767518759 -0.522029042 -2.841584206 5.639593124 -0.374434024 -3.466698647 -0.193184748 0.61468941 -0.241156504 -0.077927947 0.730775714 0.343856364 -3.45691967 -13.741251945 24.764842987 -17.771007538 -56.124919891 7.921457767 -26.88476944 -2.523113728 0.035852358 0.018723147 -0.012322661 -0.036969613 0.011757186 0.028954025 0.009142485 -0.001565722 0.037142988 -0.030730793 0.073700227 -0.011868631 -0.030914094 0.040415939 0.00138731 -0.005296717 0.070127599 -0.044564769 0.031175349 -0.030900303 0.06931217 0.048108224 0.010838514 0.011795326 -0.028174974 0.007268077 -0.000602719 -0.006305943 0.032311149 0.064630941 0.031158634 0.017529046 -0.034440678 -0.01978112 0.006277703 -0.026598262 -0.014494032 0.007901028 -0.013306295 0.028786967 0.032606788 -0.031982288 0.027257569 -0.033458389 -0.017508745 -0.004807883 0.040085297 0.028064413 0.400532722 3.259074211 15.965172768 16.245447159 22.578683853 54.739154816 6.096214771 20.747262955 4.694175243 0.017280912 0.05096538 0.006535563 0.010850041 -0.037575185 0.035227504 -0.045583323 -0.000603161 0.0222179 0.000679791 0.043869477 0.01536653 0.029316137 0.041294049 -0.005505725 0.057437822 -0.017334903 -0.038667664 0.037829533 0.013692023 0.020488612 -0.016768038 -0.017528877 -0.003105399 -0.003492165 0.023093287 -0.06016982 -0.002268061 0.000442734 -0.030085994 0.030007202 0.006153781 -0.031453185 0.021658372 -0.026869675 -0.005574882 0.035547778 -0.007516781 -0.021161573 -0.026470741 0.003499027 0.00101497 0.021018038 0.032273185 -0.031368513 -0.025782339 -0.012996313 0.026642812 -0.608485758 0.191351205 -4.327315807 12.529428482 -0.746858776 4.468633652 -1.972119212 1.279413462 0.223457128 -0.672115505 0.064246751 0.014105048 2.37429285 1.484832287 -3.813630104 3.910672665 -0.058154654 -3.300709724 -1.002468348 -3.895139456 -1.568374872 -0.505163312 -0.007146866 -0.042059027 
5.710939407 5.710939407 5.710939407 3.722829342 7.247495651 0.999629796 1.798466921 0.265658766 -0.145916462 -1.477602124 2.040765285 -0.676020682 -3.601869106 5.836929321 -1.226180434 -2.244083643 -0.331138849 1.196730971 -0.120782413 -0.071223162 0.682133496 0.234506011 -1.963226914 -12.799004555 25.544883728 -17.855831146 -54.049556732 10.162771225 -26.808193207 -1.611202598 0.048250958 -0.002571606 0.014563723 -0.020811457 0.00233688 0.015966516 0.007521396 -0.003628892 0.061285939 -0.030758563 0.08104419 -0.007977619 -0.04202804 0.040547937 0.015558206 -0.011012021 0.039928831 -0.036021359 0.048654992 -0.001723116 0.055203494 0.047511075 0.015954241 0.005768103 -0.01362774 0.003623293 -0.007256581 0.006334142 0.051243491 0.064199597 0.017792046 0.022543281 -0.042167537 -0.003311495 -0.013113502 -0.010201714 0.011909388 0.024861803 0.009372834 0.013331901 0.038702298 -0.038978998 0.013734169 -0.030471468 -0.010176618 -0.016750455 0.014589023 0.034380965 -0.006930867 1.857201934 16.125005722 15.813816071 24.377325058 55.030338287 7.573009968 17.168540955 4.006039143 0.028910773 0.025178717 -0.002338506 -0.00135451 -0.028356664 0.041314129 -0.016909214 -0.016320346 0.022718165 -0.010711038 0.06626974 0.00682788 0.028217344 0.038320512 0.011295279 0.025234273 -0.000177764 -0.004603941 0.034727339 -0.003608319 0.001160247 -0.016383488 -0.009400015 -0.031695291 -0.003371306 0.017005818 -0.046335336 -0.030041857 -0.022824332 -0.008855452 0.01783222 0.03369949 -0.035138555 0.030590937 -0.062802762 0.005272994 0.032875333 0.003473126 0.004141851 -0.040798709 -0.003081353 0.004280631 0.031042226 0.035531912 -0.029825073 -0.013958997 -0.014289758 0.028288173 -2.82788825 -1.276180029 -4.424420357 13.687569618 -1.885338664 3.61293745 -1.556439757 0.577398896 0.120383672 -0.909913778 0.063506134 0.022475125 1.114054084 5.092627048 -4.472081661 4.985041142 2.404792786 -2.539516211 -1.143263221 -4.731436729 -1.93825078 -0.348722786 -0.028897427 -0.042013865 
5.73376894 5.73376894 5.73376894 3.786339283 7.480736732 0.851572394 2.031065226 0.28746441 -0.285040885 -1.597515583 2.148449659 -0.645177841 -2.998544693 5.916918755 -1.422544241 -1.445141435 -0.37009424 1.341475964 -0.072552688 -0.062615424 0.58494401 0.067061916 -0.652435541 -12.139135361 24.894556046 -16.690624237 -52.834762573 10.45644474 -26.714332581 -0.726339638 0.045078751 -0.014023483 0.031182716 -0.008934589 -0.00066205 -0.000756172 0.006770379 -0.000517145 0.068327457 -0.029675899 0.090564191 -0.015939984 -0.053472172 0.038898263 0.024345696 -0.017919559 0.029699033 -0.026922271 0.054703966 0.011388161 0.039749205 0.045555372 0.013187904 0.001938696 -0.012298427 0.017190689 -0.003536343 0.009031268 0.057322182 0.06114262 0.018178416 0.019185267 -0.044865109 -0.005929686 -0.02205818 -0.004863088 0.020329135 0.019522559 0.003475302 -0.00052503 0.035450384 -0.04158153 0.007884754 -0.031933565 0.003714388 -0.024914179 0.002789173 0.039560325 -0.165727973 0.554348946 15.986307144 14.048786163 24.303791046 55.754302979 7.542687893 14.18905735 3.349258184 0.040533766 0.016100895 -0.001095125 0.009332966 -0.020017371 0.044580624 -0.014991822 -0.020683188 0.0164189 -0.012886933 0.064204343 -0.000549845 0.028327852 0.029232539 0.016998969 0.007691008 0.00202857 0.017358946 0.033811577 -0.014476879 0.004317431 -0.016590221 -0.004674389 -0.036924601 -0.004040145 0.018415775 -0.035971727 -0.038052347 -0.029032717 -0.004780233 0.010674095 0.039654218 -0.033518475 0.032439899 -0.081404381 0.007058892 0.029748529 0.010968635 0.012183083 -0.056844011 -0.013576922 0.013339957 0.030110596 0.038937908 -0.033394888 -0.007787358 -0.010156783 0.017515397 -4.087316513 -1.295737386 -4.128144741 14.581207275 -1.899988055 2.503261328 -1.675408721 -0.187867656 -0.200417504 -1.085531354 0.056709815 0.031449031 1.296635389 7.802473545 -4.842079639 5.887954235 4.51357317 -1.880415082 -1.886162996 -4.158674717 -1.606839538 -0.292668819 -0.039591536 -0.04302264 
